<svg xmlns="http://www.w3.org/2000/svg" width="14" height="12" viewBox="0 0 14 12">
    <path fill="#0E3F51" fill-rule="evenodd" d="M13.824 5.83c-.251-.285-.644-.285-.924-.057l-1.063.966V6C11.837 2.674 9.178 0 5.93 0 2.687.001 0 2.674 0 6c0 3.327 2.659 6 5.905 6a.638.638 0 0 0 .644-.654c0-.37-.28-.654-.644-.654-2.547 0-4.617-2.104-4.617-4.691 0-2.588 2.07-4.692 4.617-4.692 2.546 0 4.618 2.104 4.618 4.692v.74l-1.064-.967c-.28-.255-.671-.228-.924.057a.654.654 0 0 0 .056.938l2.183 1.961c.112.114.28.171.42.171a.677.677 0 0 0 .448-.17l2.155-1.962c.251-.256.28-.683.027-.94z"/>
</svg>
