<svg xmlns="http://www.w3.org/2000/svg" width="20" height="20" viewBox="0 0 20 20">
    <g fill="#0E3F51" fill-rule="evenodd">
        <path d="M18.505 10.523a8.155 8.155 0 0 1-.813 3.568c.396.204.747.5 1.033.84a9.488 9.488 0 0 0 1.077-4.386 9.481 9.481 0 0 0-2.528-6.477 3.47 3.47 0 0 1-.703 1.16 8.235 8.235 0 0 1 1.934 5.295zM16.703 2.818c0 1.469-1.151 2.66-2.57 2.66-1.42 0-2.572-1.191-2.572-2.66s1.151-2.66 2.571-2.66c1.42 0 2.571 1.191 2.571 2.66M5.142 11.863c0 1.469-1.15 2.66-2.57 2.66S0 13.331 0 11.862c0-1.468 1.151-2.658 2.571-2.658 1.42 0 2.571 1.19 2.571 2.658M18.747 17.182c0 1.469-1.15 2.66-2.57 2.66-1.422 0-2.573-1.191-2.573-2.66s1.151-2.66 2.572-2.66c1.42 0 2.571 1.191 2.571 2.66M12.99 18.159c-.704.204-1.43.34-2.198.34-2.725 0-5.121-1.477-6.506-3.681a3.37 3.37 0 0 1-1.231.455c1.56 2.727 4.439 4.545 7.736 4.545.989 0 1.934-.159 2.813-.478-.285-.317-.483-.727-.615-1.181zM3.34 8.5c.88-3.41 3.89-5.933 7.45-5.933h.023c.044-.477.154-.909.352-1.318h-.374c-4.285 0-7.846 3.091-8.768 7.227.176-.023.352-.045.55-.045.262-.022.526.001.767.068z"/>
    </g>
</svg>
