<svg xmlns="http://www.w3.org/2000/svg" width="25" height="23" viewBox="0 0 25 23">
    <g fill="#FFF" fill-rule="evenodd">
        <path d="M24.369 21.564h-.962v-10.27A1.348 1.348 0 0 0 22.07 9.94h-3.535V1.507A1.346 1.346 0 0 0 17.199.156H8.063a1.347 1.347 0 0 0-1.336 1.351v8.434H3.192a1.346 1.346 0 0 0-1.336 1.352v10.27H.884a.636.636 0 0 0-.632.64c0 .353.284.638.632.638h23.485a.635.635 0 0 0 .63-.639.636.636 0 0 0-.63-.638zm-2.3-10.345c.04 0 .072.034.072.075v10.27h-3.616V11.219h3.543zM7.986 1.508c0-.041.034-.074.074-.074h9.128c.04 0 .073.033.073.074v20.056H7.99L7.987 1.508zm-4.879 9.786c0-.041.034-.075.074-.075h3.536v10.345h-3.61v-10.27z"/>
        <path d="M10.101 19.693h5.05a.635.635 0 0 0 .632-.639.636.636 0 0 0-.631-.639H10.1a.636.636 0 0 0-.631.639c0 .353.283.639.631.639zM10.101 16.652h5.05a.636.636 0 0 0 .632-.639.635.635 0 0 0-.631-.639H10.1a.635.635 0 0 0-.631.64c0 .351.283.638.631.638zM10.101 13.611h5.05a.636.636 0 0 0 .632-.638.635.635 0 0 0-.631-.64H10.1a.635.635 0 0 0-.631.64c0 .352.283.638.631.638zM10.101 10.573h5.05a.636.636 0 0 0 .632-.64.635.635 0 0 0-.631-.638H10.1a.635.635 0 0 0-.631.639c0 .352.283.639.631.639zM10.101 7.531h5.05a.635.635 0 0 0 .632-.639.636.636 0 0 0-.631-.639H10.1a.636.636 0 0 0-.631.64c0 .352.283.638.631.638zM10.101 4.49h5.05a.636.636 0 0 0 .632-.639.635.635 0 0 0-.631-.639H10.1a.635.635 0 0 0-.631.64c0 .352.283.638.631.638z"/>
    </g>
</svg>
