<svg xmlns="http://www.w3.org/2000/svg" width="18" height="23" viewBox="0 0 18 23">
    <path fill="#0E3F51" fill-rule="evenodd" d="M8.862 0c-2.63 0-4.708 2.366-4.708 5.202s2.079 5.203 4.708 5.203c2.628 0 4.707-2.367 4.707-5.203C13.57 2.366 11.49 0 8.862 0zM9 1.095c2.035 0 3.738 1.802 3.738 4.107 0 2.306-1.703 4.108-3.738 4.108S5.262 7.508 5.262 5.202c0-2.305 1.703-4.107 3.738-4.107zm-4.765 11.5C1.898 12.595 0 14.461 0 16.757v5.723c0 .286.237.52.53.52h16.94c.293 0 .53-.234.53-.52v-5.723c0-2.296-1.898-4.162-4.235-4.162h-9.53zm.03 1.095h9.47c1.759 0 3.157 1.365 3.157 3.08v5.135H1.108V16.77c0-1.716 1.398-3.08 3.157-3.08z"/>
</svg>
